<?xml version="1.0" standalone="no"?>
<!DOCTYPE svg PUBLIC "-//W3C//DTD SVG 20010904//EN"
 "http://www.w3.org/TR/2001/REC-SVG-20010904/DTD/svg10.dtd">
<svg version="1.0" xmlns="http://www.w3.org/2000/svg"
 width="512.000000pt" height="512.000000pt" viewBox="0 0 512.000000 512.000000"
 preserveAspectRatio="xMidYMid meet">
<metadata>
Created by potrace 1.14, written by Peter Selinger 2001-2017
</metadata>
<g transform="translate(0.000000,512.000000) scale(0.100000,-0.100000)"
fill="#000000" stroke="none">
<path d="M4185 3990 c-11 -5 -54 -9 -95 -9 -46 -1 -83 -6 -95 -15 -11 -7 -40
-16 -65 -19 -24 -3 -46 -11 -48 -16 -2 -6 -18 -11 -35 -11 -18 0 -45 -9 -62
-20 -16 -11 -40 -20 -51 -20 -12 0 -27 -7 -34 -15 -7 -8 -25 -15 -41 -15 -16
0 -29 -4 -29 -10 0 -5 -6 -10 -13 -10 -7 0 -29 -9 -50 -20 -20 -11 -45 -20
-56 -20 -10 0 -24 -7 -31 -15 -7 -8 -19 -15 -27 -15 -7 0 -16 -7 -19 -15 -4
-8 -14 -15 -25 -15 -10 0 -23 -9 -29 -20 -6 -11 -17 -20 -25 -20 -8 0 -15 -7
-15 -15 0 -8 -6 -15 -14 -15 -16 0 -71 -49 -63 -56 3 -3 19 2 36 10 16 9 46
16 66 16 30 0 35 -3 35 -24 0 -14 -5 -37 -10 -52 -6 -15 -15 -52 -19 -83 -9
-56 -26 -113 -42 -141 -5 -8 -14 -27 -20 -42 -12 -32 -45 -37 -64 -12 -17 25
-52 9 -60 -26 -14 -62 -25 -39 -25 49 0 85 2 92 24 106 19 13 26 28 31 76 4
32 10 59 13 59 4 0 12 11 19 25 10 22 9 25 -8 25 -10 0 -19 -7 -19 -15 0 -8
-7 -15 -15 -15 -8 0 -15 -7 -15 -15 0 -8 -5 -15 -11 -15 -15 0 -79 -72 -85
-97 -4 -13 -12 -23 -20 -23 -8 0 -14 -7 -14 -15 0 -9 -7 -18 -15 -21 -8 -4
-15 -14 -15 -24 0 -9 -9 -27 -20 -40 -11 -13 -20 -31 -20 -41 0 -9 -5 -19 -10
-21 -6 -2 -13 -21 -17 -43 -3 -22 -10 -43 -15 -46 -5 -3 -13 -31 -18 -61 -5
-31 -13 -64 -19 -75 -5 -10 -15 -173 -21 -363 -12 -355 -20 -473 -33 -486 -9
-10 -57 43 -57 64 0 24 -43 62 -70 62 -20 0 -22 -4 -18 -47 3 -42 0 -48 -17
-51 -12 -2 -32 6 -45 18 -12 11 -27 20 -32 20 -4 0 -8 7 -8 15 0 8 -8 15 -19
15 -10 0 -24 7 -31 15 -7 8 -18 15 -25 15 -7 0 -15 7 -19 15 -3 8 -12 15 -20
15 -7 0 -16 7 -20 15 -3 8 -11 15 -18 15 -8 0 -28 13 -46 30 -18 16 -44 33
-57 36 -13 3 -26 12 -29 20 -3 8 -14 14 -24 14 -11 0 -25 7 -32 15 -7 8 -20
15 -30 15 -10 0 -23 7 -30 15 -7 8 -23 15 -35 15 -12 0 -28 6 -34 14 -7 8 -28
17 -49 21 -20 4 -41 10 -47 15 -5 4 -30 10 -55 14 -24 4 -48 12 -52 19 -5 9
-75 12 -260 12 -218 0 -259 -2 -296 -17 -23 -10 -57 -18 -75 -18 -17 0 -41 -7
-51 -15 -11 -8 -31 -15 -44 -15 -13 0 -30 -7 -38 -15 -9 -8 -29 -15 -45 -15
-17 0 -32 -6 -35 -15 -4 -8 -14 -15 -24 -15 -10 0 -25 -7 -34 -15 -8 -8 -22
-15 -30 -15 -9 0 -24 -9 -33 -20 -10 -11 -23 -20 -30 -20 -7 0 -13 -4 -13 -9
0 -5 -13 -14 -30 -20 -16 -5 -30 -15 -30 -20 0 -6 -6 -11 -14 -11 -8 0 -16 -7
-20 -15 -3 -8 -12 -15 -19 -15 -8 0 -31 -16 -51 -35 -21 -19 -42 -35 -47 -35
-5 0 -9 -7 -9 -15 0 -8 -5 -15 -10 -15 -13 0 -50 -37 -50 -50 0 -5 -7 -10 -15
-10 -8 0 -15 -5 -15 -10 0 -6 -16 -26 -35 -44 -19 -19 -35 -39 -35 -45 0 -7
-7 -14 -15 -17 -8 -4 -15 -13 -15 -20 0 -8 -7 -17 -15 -20 -8 -4 -15 -12 -15
-20 0 -8 -6 -14 -12 -14 -15 -1 -58 -64 -58 -85 0 -7 -7 -15 -15 -19 -8 -3
-15 -17 -15 -31 0 -16 -6 -25 -15 -25 -10 0 -15 -10 -15 -29 0 -16 -6 -31 -15
-35 -9 -3 -15 -18 -15 -35 0 -16 -7 -36 -15 -45 -8 -8 -15 -26 -15 -39 0 -13
-9 -36 -20 -50 -11 -14 -20 -37 -20 -52 0 -14 -7 -33 -15 -41 -8 -9 -15 -30
-15 -49 0 -20 -6 -35 -15 -39 -10 -3 -15 -19 -15 -46 0 -27 -5 -43 -15 -46 -9
-4 -15 -19 -15 -39 0 -18 -6 -38 -14 -44 -8 -7 -17 -27 -20 -46 -4 -19 -11
-35 -16 -35 -6 0 -10 -12 -10 -28 0 -15 -9 -44 -20 -65 -11 -20 -20 -48 -20
-62 0 -14 -7 -28 -15 -31 -24 -9 -17 -24 10 -24 21 0 65 30 65 45 0 8 34 48
64 74 16 14 40 36 53 49 13 12 30 22 38 22 8 0 15 4 15 8 0 5 33 19 73 31 70
22 76 23 128 8 30 -9 86 -19 124 -23 39 -4 76 -11 82 -16 20 -16 234 15 268
38 11 8 32 14 48 14 16 0 35 7 43 15 9 8 26 15 39 15 13 0 30 7 39 15 8 8 22
15 31 15 9 0 28 9 42 20 14 11 34 20 44 20 11 0 19 4 19 9 0 5 12 13 28 19 15
5 40 21 55 36 15 14 35 26 43 26 8 0 28 13 44 30 16 16 34 30 40 30 5 0 10 4
10 10 0 5 13 16 28 24 16 8 40 26 53 40 13 14 30 26 37 26 6 0 12 7 12 15 0 8
7 15 15 15 8 0 15 4 15 9 0 5 20 21 44 35 24 14 46 32 50 41 3 8 10 15 16 15
7 0 25 14 42 30 16 17 36 30 44 30 8 0 17 7 20 15 4 8 13 15 20 15 8 0 17 6
20 14 3 8 16 17 30 20 13 4 24 11 24 16 0 6 7 10 15 10 9 0 18 6 21 14 3 8 17
17 31 21 14 3 32 13 40 20 8 8 23 15 33 15 10 0 20 7 24 15 3 9 18 15 35 15
16 0 31 6 35 15 3 9 18 15 40 15 19 0 41 7 50 15 8 8 29 15 46 15 17 0 49 9
71 20 34 18 59 21 177 21 76 1 149 -4 165 -10 44 -17 87 -70 87 -107 0 -17 7
-45 15 -60 8 -16 15 -46 15 -67 0 -21 7 -45 15 -53 9 -10 15 -34 15 -65 0 -27
6 -60 14 -72 7 -12 16 -55 19 -96 4 -41 11 -79 17 -85 13 -13 14 -868 0 -882
-5 -5 -12 -43 -16 -84 -3 -41 -13 -88 -20 -104 -8 -16 -14 -48 -14 -71 0 -23
-6 -55 -14 -71 -8 -16 -17 -53 -21 -81 -4 -29 -11 -55 -16 -59 -5 -3 -9 -16
-9 -30 l0 -24 170 0 c155 0 170 2 170 18 0 9 7 30 15 46 8 16 15 55 15 90 1
34 7 72 15 86 12 20 14 85 14 345 -1 176 -4 331 -8 345 -4 14 -10 -96 -13
-245 -4 -225 -8 -275 -21 -302 -10 -18 -17 -42 -17 -55 0 -22 -36 -65 -46 -55
-2 2 -9 132 -14 288 -6 156 -15 307 -20 334 -5 28 -9 79 -9 115 -1 36 -6 82
-12 103 -6 21 -17 98 -24 170 -32 295 -50 391 -79 409 -6 4 -11 34 -11 68 0
42 -4 60 -13 60 -7 0 -15 14 -18 30 -4 17 -10 30 -15 30 -4 0 -11 16 -15 35
-3 19 -10 35 -15 35 -4 0 -11 16 -15 35 -3 20 -12 35 -20 35 -10 0 -14 13 -14
40 0 22 2 40 4 40 3 0 17 -26 32 -57 15 -32 30 -60 34 -63 4 -3 13 -22 19 -42
7 -21 17 -40 22 -43 5 -4 9 -15 9 -25 0 -21 27 -85 46 -110 6 -8 19 -40 29
-70 9 -30 24 -68 32 -85 8 -16 17 -52 20 -79 4 -28 12 -61 20 -75 7 -15 13
-42 13 -61 1 -19 7 -46 15 -60 8 -14 14 -37 15 -51 0 -15 6 -42 14 -60 8 -19
17 -73 21 -122 4 -48 11 -90 16 -93 16 -10 11 231 -6 262 -8 16 -15 52 -15 79
0 28 -6 59 -14 70 -7 11 -16 42 -18 69 -3 27 -11 52 -18 56 -6 4 -14 26 -17
49 -3 22 -9 41 -14 41 -4 0 -11 16 -15 35 -3 19 -12 39 -20 46 -8 6 -14 27
-14 45 0 24 -5 34 -15 34 -10 0 -15 10 -15 29 0 16 -7 34 -15 41 -8 7 -15 23
-15 36 0 12 -6 29 -13 36 -18 17 -37 97 -26 104 5 3 9 16 9 28 0 13 7 29 15
36 8 7 15 19 15 27 0 7 7 16 15 19 8 3 17 14 20 25 9 27 81 99 100 99 8 0 18
7 21 15 4 8 13 15 20 15 8 0 17 7 20 15 4 8 16 15 29 15 12 0 28 7 35 15 7 8
21 15 31 15 11 0 28 9 39 20 11 11 29 20 40 20 11 0 20 5 20 10 0 6 6 10 13
10 7 0 30 9 52 20 22 11 49 20 61 20 12 0 24 5 26 10 2 6 27 14 56 19 29 4 58
13 65 20 6 6 28 11 48 11 21 0 44 6 51 13 7 7 36 18 63 24 85 19 139 34 172
49 17 8 35 14 41 14 5 0 12 7 16 15 3 8 16 15 29 15 14 0 30 7 37 15 7 8 21
15 32 15 10 0 21 6 24 14 3 8 18 16 35 20 17 3 29 12 29 21 0 8 7 15 15 15 8
0 15 5 15 10 0 6 6 10 13 10 7 0 23 9 35 20 12 11 26 20 32 20 6 0 13 7 16 15
4 8 10 15 15 15 5 0 24 15 42 33 19 17 58 52 87 77 84 71 150 140 150 155 0 8
5 15 10 15 6 0 10 7 10 15 0 8 9 19 20 25 11 6 20 20 20 30 0 11 4 20 10 20 5
0 13 12 16 28 4 15 13 36 20 47 8 11 14 29 14 41 0 12 5 24 11 26 6 2 13 25
16 51 3 26 12 52 19 58 8 6 14 26 14 43 0 17 7 44 15 60 10 19 15 59 15 125 0
80 4 100 20 121 11 14 20 28 20 33 0 23 88 77 126 77 13 0 24 4 24 9 0 13 -26
21 -70 21 -21 0 -51 7 -66 15 -23 12 -75 15 -261 15 -144 0 -234 4 -238 10 -8
12 -202 12 -230 0z m-465 -625 c0 -8 -7 -15 -15 -15 -8 0 -15 7 -15 15 0 8 7
15 15 15 8 0 15 -7 15 -15z m-30 -34 c0 -6 -4 -13 -10 -16 -5 -3 -10 1 -10 9
0 9 5 16 10 16 6 0 10 -4 10 -9z m-30 -46 c0 -21 -30 -65 -45 -65 -8 0 -139
-135 -162 -168 -13 -17 -23 -36 -23 -42 0 -5 -7 -10 -15 -10 -8 0 -15 -7 -15
-16 0 -8 -6 -21 -12 -29 -29 -30 -48 -56 -48 -65 0 -6 -7 -13 -15 -16 -8 -4
-15 -12 -15 -20 0 -8 -6 -14 -14 -14 -8 0 -16 -10 -20 -23 -3 -13 -19 -36 -35
-53 -17 -16 -31 -35 -31 -41 0 -7 -4 -13 -8 -13 -8 0 -32 -43 -32 -55 0 -13
68 -3 74 10 3 8 12 15 20 15 7 0 16 7 20 15 3 8 14 15 25 15 11 0 25 9 31 20
6 11 17 20 25 20 8 0 15 5 15 10 0 6 7 10 15 10 8 0 15 -4 15 -10 0 -5 7 -10
16 -10 23 0 13 -34 -11 -38 -11 -2 -27 -10 -35 -17 -8 -7 -27 -15 -42 -19 -16
-3 -28 -11 -28 -16 0 -6 -11 -10 -24 -10 -13 0 -29 -6 -35 -14 -7 -8 -23 -17
-36 -20 -14 -4 -25 -11 -25 -16 0 -6 -7 -10 -16 -10 -8 0 -31 -16 -50 -36 -26
-28 -34 -45 -34 -73 0 -20 -9 -54 -20 -76 -11 -22 -20 -44 -20 -50 0 -12 -61
-55 -78 -55 -18 0 -15 57 3 64 8 3 15 17 15 31 0 14 6 28 14 31 8 3 18 19 21
35 4 16 10 29 15 29 5 0 11 13 15 29 3 16 13 32 21 35 8 3 14 17 14 31 0 14 5
25 11 25 5 0 15 14 20 30 6 17 15 30 20 30 5 0 9 6 9 13 0 7 9 20 20 30 11 9
20 24 20 32 0 22 20 55 60 96 62 65 90 99 90 109 0 5 7 10 16 10 9 0 18 9 21
20 3 11 9 20 13 20 5 0 12 9 15 21 4 11 20 33 36 50 16 16 29 33 29 36 0 3 7
13 15 22 8 9 29 33 47 54 18 22 48 54 66 73 17 19 32 39 32 44 0 6 7 10 15 10
9 0 15 -9 15 -25z m379 -87 c7 -18 4 -28 -14 -45 -13 -12 -35 -25 -48 -28 -14
-4 -28 -13 -31 -21 -3 -8 -16 -14 -29 -14 -14 0 -30 -7 -37 -15 -7 -8 -23 -15
-36 -15 -13 0 -24 -4 -24 -10 0 -5 -12 -13 -27 -16 -16 -4 -37 -13 -48 -20
-11 -8 -27 -14 -37 -14 -10 0 -18 -4 -18 -8 0 -12 -92 -52 -119 -52 -19 0 -21
4 -15 23 10 34 93 127 114 127 5 0 13 6 17 14 4 8 51 37 103 64 88 47 100 51
168 51 66 1 73 -1 81 -21z m-889 -84 c0 -24 -4 -44 -9 -44 -13 0 -24 55 -16
80 10 33 25 12 25 -36z m30 -82 c0 -16 7 -37 15 -48 16 -22 20 -84 5 -84 -5 0
-10 6 -10 14 0 8 -9 18 -20 21 -17 5 -20 15 -20 66 0 46 3 59 15 59 10 0 15
-10 15 -28z m250 -242 c0 -5 -5 -10 -11 -10 -5 0 -7 5 -4 10 3 6 8 10 11 10 2
0 4 -4 4 -10z m-2212 -390 c14 -9 22 -25 22 -42 l0 -28 -74 0 c-41 0 -78 -5
-81 -10 -3 -6 -26 -15 -51 -21 -24 -6 -44 -15 -44 -20 0 -5 -20 -9 -45 -9 -43
0 -45 1 -45 30 0 19 5 30 14 30 8 0 16 7 20 15 3 8 17 15 31 15 15 0 25 6 25
14 0 19 22 26 86 26 30 0 54 4 54 9 0 24 46 19 88 -9z m309 -146 c-3 -3 -12
-4 -19 -1 -8 3 -5 6 6 6 11 1 17 -2 13 -5z m-491 -33 c-3 -5 -21 -12 -40 -15
-19 -4 -37 -13 -40 -21 -3 -8 -14 -15 -25 -15 -23 0 -41 -22 -23 -28 15 -5 16
-32 2 -32 -5 0 -10 -7 -10 -15 0 -8 -7 -15 -15 -15 -8 0 -24 -8 -35 -17 -11
-10 -29 -26 -40 -35 -11 -10 -24 -18 -30 -18 -5 0 -10 -7 -10 -15 0 -8 -7 -15
-15 -15 -8 0 -15 -6 -15 -14 0 -8 -9 -18 -20 -21 -11 -3 -20 -11 -20 -16 0 -5
-18 -9 -40 -9 -27 0 -43 -5 -46 -15 -4 -9 -19 -15 -35 -15 -24 0 -29 4 -29 23
0 21 67 107 83 107 7 0 36 23 62 48 8 6 21 12 29 12 9 0 16 6 16 14 0 7 14 16
32 20 30 6 31 7 13 26 -17 19 -17 20 1 27 11 4 28 15 38 25 11 10 32 18 47 18
15 0 31 5 34 10 3 6 35 10 71 10 36 0 63 -4 60 -9z m409 -1 c-3 -5 -22 -10
-41 -10 -19 0 -34 5 -34 10 0 6 18 10 41 10 24 0 38 -4 34 -10z m24 -222 c-2
-34 -37 -108 -50 -108 -5 0 -16 -16 -25 -35 -9 -19 -20 -35 -25 -35 -5 0 -9
-9 -9 -20 0 -11 -4 -20 -9 -20 -5 0 -22 -25 -36 -56 -19 -41 -35 -59 -55 -67
-16 -6 -34 -24 -41 -39 -14 -35 -24 -35 -45 -3 -15 23 -15 35 -4 118 14 102
23 121 43 92 17 -22 33 -14 41 19 3 13 16 36 28 51 46 55 78 85 88 85 5 0 10
4 10 9 0 10 58 40 78 41 8 0 12 -12 11 -32z m-629 -62 c0 -11 -19 -15 -25 -6
-3 5 1 10 9 10 9 0 16 -2 16 -4z m-73 -32 c-3 -3 -12 -4 -19 -1 -8 3 -5 6 6 6
11 1 17 -2 13 -5z m-67 -28 c0 -8 -11 -17 -25 -20 -14 -4 -25 -10 -25 -15 0
-5 -21 -20 -47 -32 -27 -13 -52 -27 -58 -31 -40 -33 -65 -59 -65 -68 0 -6 -7
-13 -15 -16 -8 -4 -15 -14 -15 -24 0 -10 -7 -23 -15 -30 -8 -7 -15 -19 -15
-26 0 -8 -7 -14 -15 -14 -8 0 -15 -7 -15 -15 0 -8 -7 -15 -15 -15 -8 0 -15 4
-15 9 0 15 34 75 50 88 13 10 13 14 -5 27 -19 15 -19 17 -2 30 9 7 17 18 17
25 0 6 7 11 15 11 8 0 15 7 15 15 0 8 7 15 15 15 9 0 18 6 21 14 3 8 17 17 32
21 15 4 30 11 33 17 4 6 27 13 53 15 25 3 46 9 46 14 0 6 17 14 43 18 4 0 7
-5 7 -13z m325 -118 c-10 -43 -36 -88 -52 -88 -8 0 -16 -7 -19 -15 -10 -25
-24 -6 -24 31 0 22 6 37 15 40 8 4 15 12 15 20 0 8 7 14 15 14 8 0 15 7 15 15
0 9 9 15 21 15 18 0 20 -4 14 -32z"/>
</g>
</svg>
